<svg
  xmlns="http://www.w3.org/2000/svg"
  xml:space="preserve"
  overflow="visible"
  style="zoom: 1"
  viewBox="-1 -1 263 390"
>
  <path
    fill="#FFF"
    d="M63 41c5-2 18-4 36 2 19-2 25-5 43-8s45-2 66 12 41 15 45 58-3 57-8 67-58 23-67 27-48 11-57 9-71-13-79-20-34-60-32-69 15-51 24-59 21-15 29-19z"
  />
  <path
    d="M121 2c-5 0-11 2-15 5-8 7-15 14-15 22 0 9 5 14 5 14s3 3 0 5c-3 3-43 28-41 81 0 0 1 13-1 28-1 10 3 23 5 29 0 0 1 3-1 2a86 86 0 0 1 6-146 85 85 0 0 0-62 91c1 6 1 17 3 22 3 6 3 20 3 22 0 3 1 79 46 79 0 0 22 1 22-8 0-8-2-9-4-13s-4-5-3-18l1-3c1 0 14 37 30 57 17 20 33 22 46 22 0 0 23 0 23-12s-11-7-11-44 18-35 20-26 4 16 0 41c-3 24 7 27 16 27s57 1 65-135c0 0 1-22-6-41 0 0 3 36-20 56s-35 16-35 16-11-1-16 5c-4 5-3 9-13 6-9-2-9-5-18-4s-13 2-17-5c-3-7-7-11-14-12-7-2-38-16-37-58 1-38 18-51 18-51s3-3 6-2 8 1 13-3c6-5 9-9 19-13 0 0 7-1 7-7-1-7-6-22-13-26-3-2-7-3-12-3zm24 185 6 2c3 2 11 1 15 1 3 0 5 1 2 4-3 4-7 4-12 4s-11-5-11-5c-1 0-3-3-2-5l2-1zm-27-82c6-8 10-9 15-9s12 4 14 12c3 9 4 10-5 20-6 7-16 22-27 13-11-10-7-23 3-36zm98 13c-4-8-7-10-12-12-5-1-12 0-17 7s-6 8-1 20c3 9 9 27 22 21 14-6 14-20 8-36zm-58 58c3-4 10-5 13-6 5 0 5-4 5-4s0-4-17-6c-18-2-18 3-18 3s-1 4 3 5 10 3 12 8h2zm84-106c-3 1-8 1-13-5-5-5-8-10-17-14 0 0-7-2-6-9 1-6 8-20 16-24 7-4 20-1 27 6 6 7 13 15 12 24-1 8-7 13-7 13-2 3-12 9-12 9zM10 319h13s4-1 5 3l8 30 10-14s-4-19 3-19h12s3-1 5 5c3 6 8 28 8 28l14-30s2-3 5-3 5 2 4 4l-23 62s-2 4-5 4-4-2-6-6l-12-33-16 36s-1 3-3 3c-3 0-4-2-6-4L6 329s-4-10 4-10zm98 0h13s3-1 5 3l8 30 9-14s-4-19 3-19h13s3-1 5 5l8 28 13-30s2-3 5-3 5 2 4 4l-23 62s-1 4-4 4-5-2-6-6l-12-33-16 36s-1 3-4 3-4-2-5-4l-20-56s-4-10 4-10zm97 70s-4 0-4-7v-59s0-4 6-4h45s5-1 5 5-5 4-5 4h-26s-4 0-4 3v15h21s5 0 5 4-4 5-4 5h-22v28s1 6-3 6h-14z"
  />
</svg>
