<svg width="300" height="300" viewBox="0 0 300 300" fill="none" xmlns="http://www.w3.org/2000/svg">
<rect width="300" height="300" fill="#DDDDDD"/>
<path d="M212.5 156.25C212.5 172.826 205.915 188.723 194.194 200.444C182.473 212.165 166.576 218.75 150 218.75C133.424 218.75 117.527 212.165 105.806 200.444C94.0848 188.723 87.5 172.826 87.5 156.25C87.5 112.5 131.25 56.25 150 56.25C168.75 56.25 212.5 112.5 212.5 156.25Z" stroke="#555555" stroke-width="12.5" stroke-linecap="round" stroke-linejoin="round"/>
<path d="M150 118.75V243.75" stroke="#555555" stroke-width="12.5" stroke-linecap="round" stroke-linejoin="round"/>
<path d="M181.25 156.25C181.25 160.354 180.442 164.417 178.871 168.209C177.301 172 174.999 175.445 172.097 178.347C169.195 181.249 165.75 183.551 161.959 185.121C158.167 186.692 154.104 187.5 150 187.5" stroke="#555555" stroke-width="12.5" stroke-linecap="round" stroke-linejoin="round"/>
<path d="M150 162.5C143.37 162.5 137.011 159.866 132.322 155.178C127.634 150.489 125 144.13 125 137.5" stroke="#555555" stroke-width="12.5" stroke-linecap="round" stroke-linejoin="round"/>
</svg>
