<svg xmlns="http://www.w3.org/2000/svg" viewBox="0 0 241 104">
  <g fill="none" fill-rule="evenodd">
    <path
      fill="#E00"
      d="m37.8 90.5 3.5-2c.5-.3.7-.2.7-.1 0 .5 0 1.6.7 1.8.2 0 .7-.1.8 0l.3.4.5.1c.2.2 0 .4.1.5.2.2.5-.1.7 0 .3 0 .3.3.3.5-.1.4.1.6.7.2.3-.3.3-.2.6-.3h.5c0 .2.3.4.4.4h.7c.2.2.2.5.4.5s.4-.3.5-.2c.3.3-.3.9.1 1l.6-.2.4-.2c.2 0 .3.2.5 0 .2 0 .3 0 .5-.2.2-.1.5 0 .6-.2.2 0 0-.4.5-.4.5.1 0 .6.1.8.2.1.6 0 .8 0l.6-.7c0-.3.5-1.2.6-1.4l.8-1.6 1.2-1.9c0-.2.4-.5.5-.7l.4-1.1 1-1.5.6-1.5.9-1.5.5-1 .4-.8.3-.7 1-1.5.6-1 .3-.8.3-.6.3-.9.6-.9.6-1.6 1-2 1-2 .3-1a223.1 223.1 0 0 1 1.2-2.4c0-.2 0-.6.3-.6.2 0 .4.3.5.5.2.2.5.2.7.3l.8 1 .5.3.2.4c.2 0 .7.4.8.6.1.2.2.5.4.6l.8.7 1.1 1.4.3.7.4.4c0 .2 0 .7.2.8l.5.4.3.8.3.3s0 .7.2.8l.4.7.4.7c0 .2 0 .7.2.9l.3.7v.4l.3.6.2.7.1.5.2.6.3.7v.7l.3.7v.5l.1.2v.8l.3.7L63.3 91c-7 3.3-21.6 10.6-23.2 11.5-1.5.9-2.5 1.4-2.9 1.2-.8-.4-2.2-1.7-3.2-4.3-.8-2.3-.8-4.2-.7-5.1 0-.7 0-1.3 1-1.9l3.5-2zM17.4 50.2v-.5l.7-.4c.1 0 0-.3.6-.4.4 0 .6-.5.8-.9a204.1 204.1 0 0 1 12.9-7.3A351.6 351.6 0 0 1 99.7 15l1.1-.4h1.4c.8-.2.9-.4 1.2-.5l.8.1c.2 0 .6 0 .8.2.2.1.2.3.2.5s.4.4.4.4.2.2.3.3v.8s.2 0 .2.2c.1.2 0 .4 0 .4s.4.2.5.4v1.4c.2.3.8.6 1 1v.8s.3 0 .3.4-.6 1.2-.6 1.5c0 .2.4.8.3 1.2-.1.4-.4.5-.5.6l-1.7.3C101 25.8 77 32 63.1 37.3c-8.9 3.4-18.5 6.7-30.8 12.6l-1.2.5-1.3.7-1.3.8s-.8.4-.9 0c0-.4-.3-.3-.6-.4-.3 0-.4-.3-.5-.4-.2-.1-.7.2-1 .3-.2 0 0 .4-.5.4-.4 0-.6.7-1 .8-.3 0-1.2.5-1.6.7-.2 0-.6.5-1 .8-.2.3-1 .5-1.3.4-.3 0 0-1.6-.3-2.1v-.7l-.5-.2-.3-.4c-.1-.2 0-.4-.3-.5h-.3l-.4-.2c-.2 0-.4 0-.5-.2zm53-7.6c-.6-.3-.4-.6.2-1 4-1.6 14.3-5.3 20.2-7.2l22.7-7.2c1-.2 1.3-.2 1.7.2 1 1.1 2 2.6 3 4.5 1 1.7 1.7 4.2 2 5.7.2 1.2-.3 1.4-1 1.6L100.2 48 85.3 55c-1.1.6-1 .8-1.7 0l-.7-1.1-1.8-1.6-1.2-1.4-1.1-1.2c-.2-.1-.6-.3-.7-.5l-.7-.6-.5-.5-.5-.4-.4-.5s-.4-.5-.7-.6c-.3-.1-.6-.6-.7-.7-.2-.2-1-1.3-1.5-1.5a47.6 47.6 0 0 1-1.7-1.2l-1-.6zm15.5 15c-.4-.5.2-.5.6-.7A350.8 350.8 0 0 1 133 44.8c.8-.2 1.2 0 1.6.6.5.8 1.5 3.5 1.9 5.6.5 2.7 0 5.5-.2 6.1-.2.6-1 .6-2.8 1-1 .4-5.7 1.6-7.6 2.1l-10 3c-2.7 1-6.2 2-6.2 2l-18.3.4s-.3-1.2-.4-1.4c-.2 0-.5-.7-.6-.8l-.4-.8-.4-.8c-.1 0-.5-1-.7-1.1l-.7-.8c-.1-.2-.2-.5-.5-.7l-.8-.8c-.3-.1-.4-.4-.9-.8zM63.8 22l-1-.1c-.1 0 0-.2-.2-.3-.1-.2-.4-.1-.5 0h-2.3c-.1-.1-.2-.6-.5-.7l-.8-.6-.7-1a16.8 16.8 0 0 1-.6-1.3l-.4-.3-.3-.7-.2-.4-.1-.4-.3-.5-.1-1.9v-1.7l.4-.9.5-1.7a14.6 14.6 0 0 1 1-3L58.9 5l1.6-1.6a41.6 41.6 0 0 1 2.3-1.6l.5-.1.2-.3.3-.3h.5s.4-.4.8-.3c.2 0 .3-.3.5-.3s.8-.1.8 0l.6.2h.7c.2 0 .3.3.5.3 0 0 1.6 1.4 1.8 1.8l.1.4.4.6c0 .3.4.4.4.9 0 .2.5.4.7 1v.7l.3.3v.7c0 .2.5 1 .4 1.5a7 7 0 0 1-.2 1.5c-.2.4 0 1.1-.2 1.4l-.3 1.3-.8 2-.6 1-1.6 2.2-1 .8-.4.7c-.2.4-.6.1-.7.4-.3.4-.7.5-.8.7 0 .4-.4.7-.5.8-.3.3-1 .4-1.3.4zM27.1 76l-7.5 2.5-5.7 2.2L8 83c-1.2.4-1.7.2-2-.6-.4-.7-1.2-2.1-1.6-3.9-.4-1.7-.6-3.2-.6-3.7 0-.6.4-1.5 1-1.9l3.5-2A633 633 0 0 1 24 62.6l17.8-8.9a655 655 0 0 1 12.5-6c1-.3 1.8-.8 2.3-.8.4 0 .2.2.2.4l-.2.6v1c-.2.3-.5.6-.5.8 0 .3-.1 1-.3 1.3-.3.3-1 1.8-1.2 2.5-.2.7-.5 1.9-.7 2.1-.2.3-.7 1.3-.7 1.7 0 .3-.4 1-.5 1.4l-1 1.7-.6 2c0 .2-.5.8-.5.8l-.2 1-.6 1-.7 2a24.4 24.4 0 0 0-2.2 5.7c0 .3-.7 1.3-.8 1.6l-.7 2.3c-.2.3-.6 1.2-.6 1.5 0 .4-.4 1-.6 1.7l-.8 2c-.2.4-.4.6-.4.9l-.2 1a9 9 0 0 1-.2.4l-17 7.4c-2 1-17 8-17.8 8.5-1 .4-2.2 1.3-3 .7-1.3-.8-2.4-2.4-3.1-4C1 95.8.3 93.8.2 92.3c0-1.9.7-2.2 3.5-3.8A1068.7 1068.7 0 0 1 27 76z"
    />
    <path
      fill="#000"
      d="M109 86.8h3.2l-3.6 14h-4.3l-2.2-9-2.3 9h-3.2l3.5-14h4.4l2.1 9 2.4-9zm7.7 3.7c-.4 1.8 3.4 3.6 2.7 6.8-.4 2-1.6 3.7-5.4 3.7-1.2 0-2.7-.4-3.7-.7l.8-3.3c.8.5 1.8.9 2.9.9.6 0 1.6-.1 2-1.2.3-1.5-3.5-3.3-2.9-6.5.3-1.7 2-3.6 5.3-3.6.9 0 2.1.1 3.3.8l-.7 2.8a4 4 0 0 0-2.5-.7c-.5 0-1.6.3-1.8 1zm-37.2 0c-.4 1.9 3.4 3.6 2.8 6.8-.4 2-1.7 3.7-5.5 3.7-1.2 0-2.7-.4-3.7-.7L74 97c.9.5 1.8.9 2.9.9.6 0 1.6-.1 2-1.2.3-1.5-3.5-3.3-2.9-6.5.3-1.7 2-3.6 5.3-3.6 1 0 2.3 0 3.5.9l-1 2.7a4 4 0 0 0-2.3-.7c-.6 0-1.7.3-1.9 1zm94.3 5.3 2.3-9h3.2l-3.5 13.9h-4.3l-2.2-8.9-2.3 8.9h-3.3l3.6-13.9h4.3l2.2 9zm-40.9-6-.6 2.4h4.5l-.8 3h-4.4l-1.4 5.5h-3.7l3.5-14h9l-.8 3H133zm58-3-.7 3H187l-2.8 10.9h-3.7l2.8-11H180l.7-2.9H191zm1.4 0h3.6l-3.5 13.9h-3.7l3.6-13.9zm12 8.4h-4.7l-.6 2.5h5.8l-.8 3h-9.4l3.5-13.9h9.5l-.8 3H201l-.6 2.4h4.6l-.8 3zm23.4 0H223l-.6 2.5h5.8l-.8 3h-9.5l3.6-13.9h9.5l-.8 3h-5.8l-.6 2.4h4.7l-.8 3zm7.6-4.7c-.5 1.8 3.4 3.6 2.8 6.8-.4 2-1.7 3.7-5.5 3.7-1.2 0-2.7-.4-3.7-.7l.8-3.3c.9.5 1.8.8 2.9.8.6 0 1.6 0 2-1.1.3-1.5-3.5-3.3-2.9-6.5.3-1.7 2-3.6 5.3-3.6.9 0 2.1.1 3.3.7l-.7 3a4 4 0 0 0-2.5-.8c-.5 0-1.6.3-1.8 1zm-89 4 1.3 6.2h-4l-1.2-7.7h1.2c1.7 0 2.5-.7 2.8-1.8.4-1.5-.7-1.5-1.3-1.5h-1.8l-2.8 11H137l3.6-13.9h6.2c3 0 3.9 1.5 3.2 4.2a5 5 0 0 1-3.7 3.6zm68.8 0 1.4 6.2h-4l-1.3-7.7h1.3c1.7 0 2.5-.7 2.8-1.8.4-1.5-.8-1.5-1.3-1.5h-1.8l-2.8 11h-3.5l3.5-13.9h6.3c3 0 3.8 1.5 3.1 4.2a5 5 0 0 1-3.7 3.6zm-75.3-11.7h-9.4l3.5-14h9.5l-.8 3h-5.8l-.6 2.5h4.7l-.7 3h-4.8l-.6 2.5h5.8l-.8 3zm-24.5 0h-9.5l3.6-14h9.4l-.7 3h-5.8l-.7 2.5h4.7l-.7 3h-4.7l-.7 2.5h5.8l-.7 3zm32.4.2c-4.1 0-6.3-2.6-5.1-7.2a9 9 0 0 1 8.9-7.2c1 0 2.4.1 3.2.5l-.8 3c-.8-.2-1.7-.5-2.6-.5-2.9 0-4.6 2.3-5 4.2-.6 2.1 0 4.1 2.2 4.1a13 13 0 0 0 3.7-.5l-1 3.2-3.5.4zm9-.2h-3.6l3.5-14h3.7l-3.5 14zm-61.6-10-2.5 10h-3.1l3.5-14h5.2l-.3 8.8 4.4-8.7h4.9l-3.6 13.9h-3l2.4-10-5 10h-3l.1-10zm67 10H159l3.5-14h4.3L169 78l2.3-9h3.3L171 82.8h-4.3l-2.2-9-2.3 9zm17-10.2c-.5 1.8 3.4 3.6 2.7 6.8-.4 2-1.6 3.6-5.4 3.6-1.2 0-2.7-.3-3.7-.7l.8-3.2c.8.5 1.8.8 2.8.8.6 0 1.7 0 2-1.1.4-1.5-3.4-3.3-2.8-6.6.3-1.6 2-3.6 5.3-3.6.9 0 2.1.2 3.3.8l-.7 3a4 4 0 0 0-2.5-.8c-.5 0-1.6.3-1.8 1zM90.4 86.8h4.4c.3 4.6.8 9.3 1.3 13.9h-4l-.2-4h-4.3l-2.4 4h-4c3.2-4.5 6.2-9.2 9.2-13.9zm-1.1 7 2.4-4 .3 4h-2.7zm69.7-7.2c4.1 0 6.4 2.7 5 7.6a8.9 8.9 0 0 1-8.7 6.8c-4.1 0-6.3-2.6-5.1-7.2 1.2-4.6 4.6-7.2 8.8-7.2zm1.5 7.2c-.6 2.2-2.3 4.1-4.4 4.1-2.2 0-2.8-2-2.3-4.1.6-2.2 2.2-4.2 4.4-4.2 2.1 0 2.8 2 2.3 4.2zm-29.8-18c-1 4-3.7 7-7.7 7h-5.8l3.6-14h6.5c1.8 0 5 1.1 3.4 7zm-3.6 0c-.5 2-2 4-4 4h-1.6l2-8h1.8c2 0 2.4 1.4 1.8 4z"
    />
  </g>
</svg>
