<svg
  xmlns="http://www.w3.org/2000/svg"
  xmlns:xlink="http://www.w3.org/1999/xlink"
  xml:space="preserve"
  viewBox="0 0 100 70"
>
  <path
    fill="#008CC7"
    d="M50 12.4a8.2 8.2 0 0 1 8.2 8.3 8.3 8.3 0 1 1-8.2-8.3m-8.8 8.3a8.7 8.7 0 0 0 8.8 8.7 8.7 8.7 0 0 0 6.2-15 8.8 8.8 0 0 0-15 6.2m8.8-6.9a7 7 0 0 1 7 7 7 7 0 1 1-7-7m-7.5 7A7.4 7.4 0 0 0 50 28a7.4 7.4 0 0 0 7.5-7.4 7.4 7.4 0 0 0-7.5-7.5 7.5 7.5 0 0 0-7.5 7.5"
  />
  <defs>
    <path
      id="a"
      d="M25.6 23.8c0 1.7 1.7 3.8 5.8 3.8h9.1c-1.1 1-4.1 2.6-5 2.9 2.7 1.2 9.3 2.4 11.5 2.4l.7-2.6a10 10 0 0 1-7.1-6.5h-15zm33.8 0a10 10 0 0 1-7.1 6.5L53 33c2.2 0 8.8-1.2 11.5-2.4-.9-.3-3.9-1.8-5-2.9h9c4.2 0 6-2.1 6-3.8h-15zm-39.3-1h20.2a10 10 0 0 1-.1-3.2c-.5-.5-1.3-1-2.6-1H16c-.7 0-1.6 0-2.2-.2.8 2 2 4.5 6.3 4.5m64-4.3H62.3c-1.3 0-2 .5-2.5 1a9.8 9.8 0 0 1-.2 3.3h20.2c4.3 0 5.6-2.5 6.3-4.5l-2.2.2m-76.7-7c.2 2 1.8 6.1 7.6 6.1h22.5c1 0 2.2.2 2.9 1 .2-1.1.6-2.1 1.1-3-1.3-1.9-3-2.2-5.5-2.2H12.3c-2.7 0-4.5-.9-5-2zm80.4 1.9H64.1c-2.5 0-4.2.3-5.6 2.1.6 1 1 2 1.2 3 .7-.7 1.9-.9 2.9-.9H85c5.8 0 7.4-4.2 7.6-6.1-.5 1-2.3 1.9-5 1.9"
    />
  </defs>
  <clipPath id="b">
    <use xlink:href="#a" overflow="visible" />
  </clipPath>
  <radialGradient
    id="c"
    cx="-251.1"
    cy="338"
    r=".8"
    gradientTransform="matrix(40.275 0 0 -40.275 10163 13634.3)"
    gradientUnits="userSpaceOnUse"
  >
    <stop offset="0" stop-color="#008cc7" />
    <stop offset="1" stop-color="#004381" />
  </radialGradient>
  <path fill="url(#c)" d="M7.3 11.6h85.3V33H7.3z" clip-path="url(#b)" />
  <g>
    <defs>
      <path
        id="d"
        d="M50 30.6h-1.2c-.4 3.6 0 6.6 1.2 9.2 1.2-2.6 1.6-5.6 1.2-9.3H50m2.2-5.6.5.7c.1.2.2.3.4 0l.4-.7h-1.3zm0-8.7c0 .8-.3 1.2-.9 1-.8-.1-.7-1.2-2-.8-.7.2-2.1 1-4 2-.5.4-.9.8-1 1.2 0 .8 1.3 3.7 1.4 4 .2.4.7.4 1.1.2.5-.3 1.9-1 2.9-1 1.3 0 1.5.5 2 1.4H54l1.5-2.9c.2-.5.2-1.2-.2-1.6L53 16l-.4-.5c-.2 0-.3.3-.3.7m-15.8-9c1 2.6 2.9 5 5.8 7.3A10.1 10.1 0 0 1 44 13C41.5 9.9 39 8 36.4 7zm19.7 5.7a9.9 9.9 0 0 1 1.7 1.6c3-2.3 4.8-4.7 5.8-7.4-2.7 1-5.1 2.9-7.5 5.8M44.8 5.7c-.2-.1-.4-.3-.3-.4 0-.2.2-.2.5-.1.2 0 .3.2.3.3l-.3.2h-.2m9.9-.2c0-.1 0-.3.3-.3h.5c0 .2 0 .4-.3.5H55c-.2 0-.3 0-.3-.2m-7.1-3c1.2 1.3 1.6 3.5 1.6 7.8-.8-2.1-3.5-1.8-5.4-2.6-1-.4-1.3-1.8 0-2.2-.2.7 2.4 1.3 3.4.5.4-.4-.4-2.2-3.2-2.3-1.4 0-3.2.7-3.3 2.7 0 2 2.4 2.9 3 3 1.1.5 3.4.7 2.4 2.2a9.9 9.9 0 0 1 7.8 0c-1-1.5 1.3-1.7 2.5-2.1.5-.2 3-1 3-3-.2-2.1-2-2.8-3.4-2.8-2.8.1-3.6 2-3.2 2.3 1 .8 3.5.2 3.4-.5 1.3.4 1 1.8 0 2.2-2 .8-4.6.5-5.4 2.6 0-4.3.4-6.5 1.6-7.9-1.5-.6-1.8-1.3-2.4-2-.6.7-.9 1.4-2.4 2"
      />
    </defs>
    <clipPath id="e">
      <use xlink:href="#d" overflow="visible" />
    </clipPath>
    <radialGradient
      id="f"
      cx="-255.4"
      cy="342.1"
      r=".8"
      gradientTransform="matrix(21.9026 0 0 -21.9026 5643.4 7513.6)"
      gradientUnits="userSpaceOnUse"
    >
      <stop offset="0" stop-color="#e84e0f" />
      <stop offset=".2" stop-color="#d83f0e" />
      <stop offset=".4" stop-color="#cc350d" />
      <stop offset=".7" stop-color="#c52f0c" />
      <stop offset="1" stop-color="#c22e0c" />
    </radialGradient>
    <path fill="url(#f)" d="M36.4.5h27.2v39.4H36.4z" clip-path="url(#e)" />
  </g>
  <g fill="#004380">
    <path
      d="M41.6 46.5v1s-.6-1.2-2.4-1.2c-2 0-3.4 1.6-3.4 4s1.3 4 3.3 4c2 0 2.5-1.4 2.5-1.4v1.2H43v-7.6h-1.4zm-2.2 6.6c-1.3 0-2.1-1.1-2.1-2.8 0-1.7 1-2.7 2.2-2.7 1.4 0 2.1 1.4 2.1 2.7 0 2-1 2.8-2.2 2.8m6-9.6h1.5v10.6h-1.5V43.5zm-21.9 2.8a4 4 0 1 1 0 8 4 4 0 1 1 0-8m0 6.8c1.4 0 2.6-1.2 2.6-2.8 0-1.6-1.2-2.7-2.6-2.7a2.6 2.6 0 0 0-2.6 2.7c0 1.6 1.2 2.8 2.6 2.8m5 2.7s.3.3.8.3c.6 0 1-.4 1.4-1.1l.4-1-3.2-7.5h1.6l2 5 .2 1 .3-1 1.8-5h1.6l-3.5 9c-.5 1.2-1.5 1.8-2.5 1.8-.9 0-1.5-.4-1.5-.4l.5-1.1zm-17-11h-1v-1.3H15c1.9 0 3.2 1.2 3.2 3.1 0 1.8-1.2 2.7-2 2.9 0 0 .4.1.5.5l1.3 2.5c.2.3.4.3.8.3h.2v1.3h-.8c-.8 0-1.1 0-1.4-.8l-1.5-2.8c-.3-.5-.5-.6-1-.6H13v4.2h-1.5v-9.3zm3.4 3.8c1.2 0 1.8-.7 1.8-1.9s-.6-1.9-1.7-1.9h-2v3.8h2zM52.4 44.8h-1v-1.3h6c.6 0 .9.3.9 1v1.3h-1.4v-.7c0-.2-.1-.3-.3-.3h-2.7v3.5h3.7v1.3h-3.7V54h-1.5v-9.3zm7.5-1.3h1.5V52c0 1 .3 1.1.8 1.1h.2v1.3H62c-.9 0-2-.2-2-2.1v-8.7zm9.5 3h-.8l-1.9 5-.2 1-.3-1-2-5h-1.5l3 7.6-.3.8c-.3.7-.7 1.1-1.3 1.1-.7 0-1.1-.5-1.1-.5l-.6 1s.6.8 1.8.8c1 0 2-.6 2.4-1.8l3.6-9h-.8zm5.6 0h1.4v1.6a3 3 0 0 1 2.8-1.8c1.8 0 2.6 1 2.6 3V54h-1.4v-4.5c0-1-.2-2-1.5-2-1.1 0-2 .9-2.4 2V54H75v-7.6zm-3.1-3.2c-.5 0-.8.4-.8.8a.8.8 0 1 0 .8-.8m-.8 3.2h1.5v7.6h-1.5v-7.6zm18.3 0v1s-.6-1.2-2.3-1.2c-2 0-3.5 1.6-3.5 4s1.3 4 3.4 4c1.9 0 2.5-1.4 2.5-1.4v1c0 1.5-1.2 2.1-2.5 2.1-1.1 0-2-.5-2-.5l-.6 1.2c.8.3 1.7.6 2.6.6 2 0 3.9-1 3.9-3.5v-7.3h-1.5zm-2.1 6.6C86 53 85 52 85 50.3c0-1.7 1-2.7 2.2-2.7 1.4 0 2.2 1.4 2.2 2.7 0 2-1.1 2.8-2.2 2.8M15.4 61.5a4 4 0 1 1 0 8 4 4 0 1 1 0-8m0 6.7c1.5 0 2.6-1.1 2.6-2.7a2.6 2.6 0 1 0-5.2 0c0 1.6 1.2 2.7 2.6 2.7M1.4 60H.6v-1.3h4.3c3.2 0 5.4 2 5.4 5.3S8 69.3 4.8 69.3H2.4c-.6 0-1-.3-1-1V60zm2 8h1.3c2.3 0 3.9-1.4 3.9-4s-1.6-4-4-4H3v7.7c0 .2.1.3.3.3M25 61.5c2 0 2.9 1.1 2.9 1.1l-.7 1s-.8-.8-2.1-.8a2.6 2.6 0 0 0-2.7 2.7c0 1.5 1.1 2.7 2.7 2.7 1.4 0 2.4-1 2.4-1l.5 1s-1 1.3-3 1.3c-2.4 0-4-1.7-4-4a4 4 0 0 1 4-4m18.6.2H45V63.5c.3-1.1 1.2-2 2.4-2h.3V63h-.4c-1 0-1.8.6-2.1 1.7-.2.5-.2 1-.2 1.4v3.2h-1.5v-7.6zm-5.8-.2a4 4 0 1 1 0 8 4 4 0 1 1 0-8m0 6.7c1.4 0 2.6-1.1 2.6-2.7s-1.2-2.7-2.6-2.7a2.6 2.6 0 0 0-2.7 2.7c0 1.6 1.2 2.7 2.7 2.7m-6.9-9.5h-1.5v10.6H31V63h2.6v-1.3H31v-3zM82 58.5a.8.8 0 1 0 0 1.6.8.8 0 0 0 0-1.6m-.7 3.2h1.5v7.6h-1.5v-7.6zM52.1 67s1.1 1.1 2.7 1.1c1 0 1.8-.5 1.8-1.6 0-2.3-5.1-1.8-5.1-5 0-1.7 1.4-3 3.4-3s3 1 3 1l-.7 1.3s-1-1-2.3-1c-1.1 0-2 .8-2 1.6 0 2.2 5.2 1.6 5.2 5.1 0 1.6-1.2 3-3.3 3a5 5 0 0 1-3.6-1.4l.9-1.1zm11.2-5.5c2.1 0 3.3 1.6 3.3 3.6v.6H61c0 1.7 1.2 2.5 2.6 2.5 1.3 0 2.3-.9 2.3-.9l.6 1.1s-1.2 1.1-3 1.1c-2.4 0-4-1.7-4-4 0-2.4 1.6-4 3.8-4m1.8 3.1c0-1.3-.9-2-1.9-2-1 0-2 .8-2.2 2h4zm23.5-3c2 0 3 1 3 1l-.8 1s-.8-.8-2.1-.8a2.6 2.6 0 0 0-2.7 2.7c0 1.5 1.2 2.7 2.7 2.7 1.5 0 2.4-1 2.4-1l.6 1s-1 1.3-3 1.3a4 4 0 0 1-4.2-4 4 4 0 0 1 4.1-4m7.6 0c2.2 0 3.3 1.6 3.3 3.6v.6h-5.6c0 1.7 1.3 2.5 2.6 2.5s2.3-.9 2.3-.9l.6 1.1s-1.2 1.1-3 1.1c-2.4 0-4-1.7-4-4 0-2.4 1.6-4 3.8-4m1.8 3.1c0-1.3-.9-2-1.8-2-1.2 0-2 .8-2.3 2H98zM72.5 63H72c-1 0-1.8.6-2.1 1.7-.2.5-.2 1-.2 1.4v3.2h-1.5v-7.6h1.4V63.5c.4-1 1.2-1.9 2.2-2l.6 1.5zm7.9-1.3-2.8 7.6h-1.7L73 61.7h1.6l1.8 5.1.3 1 .3-1 1.8-5h1.6z"
    />
  </g>
</svg>
